<svg id="Livello_1" data-name="Livello 1" xmlns="http://www.w3.org/2000/svg" viewBox="0 0 609.8 93.75"><defs><style>.cls-1{fill:#fff;}.cls-2{fill:#1c8cfa;}</style></defs><path class="cls-1" d="M171.14,10H112.63a1.38,1.38,0,0,0-1.38,1.38v12a1.38,1.38,0,0,0,1.38,1.38H133V83.25a1.38,1.38,0,0,0,1.38,1.38h14.8a1.38,1.38,0,0,0,1.38-1.38V24.78h20.62a1.38,1.38,0,0,0,1.38-1.38v-12A1.38,1.38,0,0,0,171.14,10"/><path class="cls-1" d="M195.6,10.21H181.73a1.8,1.8,0,0,0-1.8,1.79V23.32a1.8,1.8,0,0,0,1.8,1.79H195.6a1.8,1.8,0,0,0,1.8-1.79V12a1.8,1.8,0,0,0-1.8-1.79"/><path class="cls-1" d="M195.82,28.48H181.51a1.38,1.38,0,0,0-1.38,1.38V83.25a1.37,1.37,0,0,0,1.38,1.37h14.31a1.37,1.37,0,0,0,1.38-1.37V29.86a1.38,1.38,0,0,0-1.38-1.38"/><path class="cls-1" d="M225.18,43.81a7.25,7.25,0,0,1,6.4-3.05,7.14,7.14,0,0,1,5.51,2.18,8.4,8.4,0,0,1,2.19,5.85,1.38,1.38,0,0,0,1.38,1.35H254a1.38,1.38,0,0,0,1.38-1.4c-.07-6.67-2.29-12.11-6.58-16.16s-10-6.07-17-6.07c-8,0-14.4,2.63-19,7.81s-6.91,12.07-6.91,20.61v.93c0,8.87,2.34,16,7,21s11.07,7.73,19.07,7.73A26.42,26.42,0,0,0,243.71,82a21,21,0,0,0,8.52-7.5,19.79,19.79,0,0,0,3.18-10.67A1.38,1.38,0,0,0,254,62.43H240.66a1.37,1.37,0,0,0-1.38,1.34,6.26,6.26,0,0,1-2.1,4.78,8,8,0,0,1-5.5,1.82c-3,0-5.1-1-6.52-3s-2.27-5.88-2.27-11.07V54.8c0-5.12.77-8.82,2.29-11"/><path class="cls-1" d="M294.44,52.22,313,30.76a1.38,1.38,0,0,0-1-2.28H294.88a1.38,1.38,0,0,0-1.05.49L280.12,45.05l-.29.38V12.05a1.37,1.37,0,0,0-1.38-1.37H264.19a1.37,1.37,0,0,0-1.38,1.37v71.2a1.37,1.37,0,0,0,1.38,1.37h14.26a1.37,1.37,0,0,0,1.38-1.37V67.54L283.34,64l12.8,20a1.36,1.36,0,0,0,1.16.63h16.38a1.38,1.38,0,0,0,1.14-2.14Z"/><path class="cls-1" d="M360.45,33.87C356,29,349.86,26.51,342.19,26.51a26.15,26.15,0,0,0-13.71,3.63,24.23,24.23,0,0,0-9.33,10.34,33.71,33.71,0,0,0-3.25,15v1.38c0,8.34,2.62,15.13,7.79,20.18s11.92,7.59,20.08,7.59A29.88,29.88,0,0,0,356.49,82a22.84,22.84,0,0,0,9.23-7.53,1.37,1.37,0,0,0-.1-1.71l-7-7.85a1.43,1.43,0,0,0-1.07-.46,1.38,1.38,0,0,0-1,.54c-2.84,3.65-6.7,5.43-11.79,5.43a11.14,11.14,0,0,1-7.88-2.8,11.29,11.29,0,0,1-3.45-6h32.35a1.37,1.37,0,0,0,1.37-1.37V54.38c0-8.76-2.23-15.67-6.65-20.51M333.52,49.11a12.47,12.47,0,0,1,2.75-5.92,7.54,7.54,0,0,1,5.87-2.43c2.66,0,4.62.71,6,2.17a9.2,9.2,0,0,1,2.18,6.18Z"/><path class="cls-1" d="M402.32,69.8a20.75,20.75,0,0,1-3.93.33c-2.25,0-3-.52-3.31-.82h0c-.36-.41-.79-1.32-.79-3.33V40.71H402a1.38,1.38,0,0,0,1.38-1.38V28.87A1.37,1.37,0,0,0,402,27.5h-7.75V15.75a1.38,1.38,0,0,0-1.38-1.38H378.65a1.38,1.38,0,0,0-1.38,1.38V27.5h-6.41a1.37,1.37,0,0,0-1.38,1.37V39.33a1.37,1.37,0,0,0,1.38,1.38h6.41V68.13c.22,10.79,6,16.49,16.68,16.49a30.85,30.85,0,0,0,9-1.34A1.38,1.38,0,0,0,404,82V71.16a1.36,1.36,0,0,0-.5-1.06,1.38,1.38,0,0,0-1.14-.3"/><path class="cls-1" d="M430.61,26.16h0c1.7-1.3,4.2-2,7.4-2s5.87.79,7.62,2.34A8.06,8.06,0,0,1,448.21,33a1.34,1.34,0,0,0,1.34,1.35H464A1.34,1.34,0,0,0,465.31,33a21.46,21.46,0,0,0-3.46-12,22.7,22.7,0,0,0-9.67-8.15A33,33,0,0,0,438.25,10a36.19,36.19,0,0,0-13.95,2.6A22.29,22.29,0,0,0,414.55,20a18.27,18.27,0,0,0-3.45,10.9c0,7.77,4.25,14,12.63,18.53a75.61,75.61,0,0,0,12.09,4.88c4.83,1.56,8.19,3,10,4.41a6.08,6.08,0,0,1,2.35,5.2,5.47,5.47,0,0,1-2.33,4.75c-1.68,1.22-4.12,1.84-7.24,1.84-8.53,0-12.5-3.26-12.5-10.24A1.35,1.35,0,0,0,424.75,59H410.28a1.35,1.35,0,0,0-1.34,1.35A22.18,22.18,0,0,0,412.65,73a24.69,24.69,0,0,0,10.69,8.57,37.16,37.16,0,0,0,15.25,3.07c8,0,14.51-1.82,19.31-5.43s7.41-8.85,7.41-15.33a19.67,19.67,0,0,0-6-14.61c-3.88-3.79-10.1-7-18.47-9.5a37.89,37.89,0,0,1-9.76-4.16c-1.92-1.28-2.84-2.79-2.84-4.6a5.73,5.73,0,0,1,2.4-4.83"/><path class="cls-1" d="M535.5,27.5c-6.62,0-11.94,2.35-15.85,7-3-4.65-7.78-7-14.35-7a20.41,20.41,0,0,0-14.2,5.13l-.21-2.87a1.39,1.39,0,0,0-1.38-1.28H476.14a1.38,1.38,0,0,0-1.38,1.38V83.25a1.38,1.38,0,0,0,1.38,1.38H490.4a1.38,1.38,0,0,0,1.38-1.38V45.86c1.57-2.7,4-4,7.4-4,2.5,0,4.25.54,5.19,1.6s1.48,3.07,1.48,5.8v34a1.38,1.38,0,0,0,1.38,1.38h14.26a1.38,1.38,0,0,0,1.37-1.38l-.05-36.39a7.54,7.54,0,0,1,7.51-5c2.55,0,4.31.54,5.21,1.61S537,46.53,537,49.2V83.25a1.38,1.38,0,0,0,1.38,1.38h14.31a1.38,1.38,0,0,0,1.38-1.38V49.15c0-7.07-1.54-12.49-4.57-16.1s-7.8-5.55-14-5.55"/><path class="cls-1" d="M597.59,51.26h0a64.32,64.32,0,0,0-9.18-2.45,22.12,22.12,0,0,1-7.1-2.32,3,3,0,0,1-1.61-2.67,3.76,3.76,0,0,1,1.47-3.08,7.29,7.29,0,0,1,4.7-1.31c2.4,0,4.14.53,5.19,1.59a5.52,5.52,0,0,1,1.57,4.09A1.38,1.38,0,0,0,594,46.49h14.26a1.38,1.38,0,0,0,1.38-1.38A16.47,16.47,0,0,0,603,31.59c-4.3-3.37-10-5.08-17.11-5.08-6.64,0-12.12,1.7-16.29,5.07a16,16,0,0,0-6.4,12.94c0,8.82,6.77,14.72,20.14,17.53a28.32,28.32,0,0,1,7.9,2.53,3.24,3.24,0,0,1,1.91,2.93,3.46,3.46,0,0,1-1.54,3,9.13,9.13,0,0,1-5.38,1.28A9.89,9.89,0,0,1,580.1,70a6.08,6.08,0,0,1-2.28-4.8,1.37,1.37,0,0,0-1.37-1.31H562.93a1.38,1.38,0,0,0-1.38,1.38,16.67,16.67,0,0,0,3.21,9.8,21.52,21.52,0,0,0,8.72,7A29.73,29.73,0,0,0,586,84.62c6.88,0,12.59-1.6,17-4.77a15.31,15.31,0,0,0,6.84-12.93c0-7.42-4.11-12.69-12.21-15.66"/><path class="cls-1" d="M79.9,47.41H40.85L10,53a4.67,4.67,0,0,1-1.12.09,6.48,6.48,0,0,1-6.4-5.29v-.09A3.6,3.6,0,0,0,.12,51V81.08A3.7,3.7,0,0,0,3.83,84.7H67.47A9.11,9.11,0,0,1,73.13,87l7.42,6.22A1.81,1.81,0,0,0,83.61,92V51a3.64,3.64,0,0,0-3.71-3.62"/><path class="cls-2" d="M81.78,18.3a5.28,5.28,0,0,1,1.38-4.58,2.53,2.53,0,0,0,.61-2.16L82.28,3.13A3.77,3.77,0,0,0,77.9.06L36.85,7.3,3.13,13.24A3.78,3.78,0,0,0,.06,17.62L5.22,46.89A3.79,3.79,0,0,0,9.6,50l33.73-6,41-7.24a3.78,3.78,0,0,0,3.07-4.38L86,24a2.49,2.49,0,0,0-1.32-1.82,5.31,5.31,0,0,1-2.86-3.84"/></svg>